<svg width="19" height="22" viewBox="0 0 19 22" fill="none" xmlns="http://www.w3.org/2000/svg">
<path d="M13.2505 6.63079V5.25091C13.2505 3.05767 11.3663 1.30109 9.13333 1.51751H9.1304C7.30904 1.68751 5.75068 3.53291 5.75051 5.44036V6.41107C5.7503 6.8251 5.41459 7.16107 5.00051 7.16107C4.58644 7.16107 4.25073 6.8251 4.25051 6.41107V5.44036C4.25067 2.84902 6.31089 0.27701 8.98782 0.0253241C12.1147 -0.278032 14.7505 2.18426 14.7505 5.25091V6.63079C14.7504 7.04495 14.4147 7.38079 14.0005 7.38079C13.5863 7.38079 13.2506 7.04495 13.2505 6.63079Z" fill="#2B2B2B"/>
<path d="M13.5007 5.99066C15.7236 5.99069 17.2413 6.50546 18.1267 7.55805C19.0049 8.60222 19.0875 9.97459 18.946 11.2534L18.945 11.2641L18.195 17.2641L18.194 17.2631C18.0831 18.2878 17.824 19.4094 16.9099 20.2446C15.9987 21.0768 14.5873 21.4906 12.5007 21.4907H6.50069C4.41384 21.4907 3.00168 21.077 2.09053 20.2446C1.17268 19.406 0.914547 18.2785 0.8044 17.2504L0.0563527 11.2641L0.0553761 11.2534C-0.0861165 9.97469 -0.00434208 8.60219 0.873735 7.55805C1.75915 6.50539 3.27765 5.99066 5.50069 5.99066H13.5007ZM5.50069 7.49066C3.45373 7.49066 2.48676 7.97152 2.02217 8.52387C1.55199 9.08299 1.41813 9.92194 1.54463 11.0776L2.29463 17.0776L2.29659 17.0903C2.39645 18.0219 2.60285 18.6808 3.10225 19.1371C3.60861 19.5997 4.56754 19.9907 6.50069 19.9907H12.5007C14.4334 19.9906 15.3917 19.5996 15.8981 19.1371C16.3976 18.6808 16.6049 18.0229 16.7048 17.0913L16.7058 17.0776L17.4548 11.0883L17.4909 10.6674C17.5451 9.72082 17.3917 9.01456 16.9792 8.52387C16.5146 7.97154 15.5475 7.49069 13.5007 7.49066H5.50069Z" fill="#2B2B2B"/>
<path d="M13.0054 9.74067C13.5575 9.74089 14.0054 10.1885 14.0054 10.7407C14.0054 11.2928 13.5575 11.7404 13.0054 11.7407H12.9956C12.4435 11.7405 11.9956 11.2928 11.9956 10.7407C11.9956 10.1885 12.4435 9.74086 12.9956 9.74067H13.0054Z" fill="#2B2B2B"/>
<path d="M6.00381 9.74067C6.5561 9.74067 7.00381 10.1884 7.00381 10.7407C7.00381 11.2584 6.61057 11.6845 6.10635 11.7358L6.00381 11.7407H5.99502C5.44274 11.7407 4.99502 11.293 4.99502 10.7407C4.99502 10.1884 5.44274 9.74067 5.99502 9.74067H6.00381Z" fill="#2B2B2B"/>
</svg>
